<svg xmlns="http://www.w3.org/2000/svg" class="svg-icon" style="width: 1em;height: 1em;vertical-align: middle;fill:#e62525;overflow: hidden;" viewBox="0 0 1024 1024" version="1.1"><path d="M953.17 596.33L842.9 486.07a405.6 405.6 0 0 0 32.78-35.39c37.58-45.75 66.44-101.14 85.8-164.64a35 35 0 0 0-67-20.41c-31.16 102.25-89.07 177.15-172.13 222.63C646.7 529.7 566.2 538.4 512 538.4c-75.71 0-142.63-14.09-198.9-41.89a334 334 0 0 1-113.54-91.14c-52.33-65.27-66.39-132.1-67.12-135.7a35 35 0 1 0-68.87 12.57c0.62 3.39 15.91 83.82 79.11 164.08a408.6 408.6 0 0 0 40.24 44.08L73 600.33a36 36 0 1 0 50.92 50.91l116-116a411.8 411.8 0 0 0 40.07 23 439.59 439.59 0 0 0 69.53 27.57l-41 153.06A36 36 0 1 0 378 757.48l41.76-155.86A608.16 608.16 0 0 0 512 608.4a569.33 569.33 0 0 0 91-7.3l56 153.61a36 36 0 1 0 67.66-24.62l-53-145.59A453.58 453.58 0 0 0 756 549.66q15.63-8.56 30.32-18.35l115.94 115.94a36 36 0 0 0 50.91-50.92z" fill="#808080"/></svg>