<?xml version="1.0" encoding="iso-8859-1"?><!-- Generator: Adobe Illustrator 22.0.0, SVG Export Plug-In . SVG Version: 6.00 Build 0)  -->
<svg version="1.1" id="Layer_1" xmlns="http://www.w3.org/2000/svg"  x="0px" y="0px"
	 viewBox="0 0 69.821 57.633" style="enable-background:new 0 0 69.821 57.633;" xml:space="preserve">
<g>
	<g>
		<path style="fill:#35424B;" d="M18.49,57.443c-0.865,0-1.565-0.7-1.565-1.565V9.619c0-0.865,0.699-1.565,1.565-1.565
			c0.865,0,1.565,0.7,1.565,1.565v46.259C20.056,56.743,19.355,57.443,18.49,57.443L18.49,57.443z"/>
	</g>
	<g>
		<path style="fill:#35424B;" d="M42.289,49.839c-9.425,0-17.089-7.668-17.089-17.091c0-9.424,7.665-17.09,17.089-17.09
			c9.423,0,17.09,7.665,17.09,17.09C59.379,42.172,51.713,49.839,42.289,49.839L42.289,49.839z M42.289,18.789
			c-7.696,0-13.959,6.263-13.959,13.959c0,7.697,6.263,13.96,13.959,13.96c7.697,0,13.96-6.263,13.96-13.96
			C56.249,25.052,49.987,18.789,42.289,18.789L42.289,18.789z"/>
	</g>
	<g>
		<path style="fill:#35424B;" d="M63.918,57.633H5.903C2.648,57.633,0,54.983,0,51.728V13.776c0-3.256,2.648-5.903,5.903-5.903
			h19.639l5.713-7.275C31.552,0.22,32.007,0,32.488,0h19.607c0.482,0,0.936,0.22,1.233,0.598l5.71,7.275h4.882
			c3.256,0,5.903,2.647,5.903,5.903v37.952C69.821,54.983,67.174,57.633,63.918,57.633L63.918,57.633z M5.903,11.003
			c-1.528,0-2.774,1.244-2.774,2.772v37.952c0,1.531,1.246,2.775,2.774,2.775h58.015c1.528,0,2.773-1.244,2.773-2.775V13.776
			c0-1.528-1.246-2.772-2.773-2.772h-5.643c-0.479,0-0.934-0.22-1.232-0.599L51.334,3.13H33.248l-5.713,7.275
			c-0.298,0.379-0.752,0.599-1.232,0.599H5.903L5.903,11.003z"/>
	</g>
</g>
<g>
</g>
<g>
</g>
<g>
</g>
<g>
</g>
<g>
</g>
<g>
</g>
<g>
</g>
<g>
</g>
<g>
</g>
<g>
</g>
<g>
</g>
<g>
</g>
<g>
</g>
<g>
</g>
<g>
</g>
</svg>
