<?xml version="1.0" encoding="utf-8"?>
<!-- Generator: Adobe Illustrator 25.0.1, SVG Export Plug-In . SVG Version: 6.00 Build 0)  -->
<svg version="1.1" id="Layer_1" xmlns="http://www.w3.org/2000/svg" xmlns:xlink="http://www.w3.org/1999/xlink" x="0px" y="0px"
	 viewBox="0 0 63.15 63.55" style="enable-background:new 0 0 63.15 63.55;" xml:space="preserve">
<style type="text/css">
	.st0{fill:#FFFFFF;}
	.st1{fill:#878787;}
	.st2{fill:#F7931E;}
	.st3{fill:#35424B;}
	.st4{fill:#7B3DD9;}
	.st5{fill:#FF9D00;}
	.st6{fill:#00A9FF;}
	.st7{fill:#1D39CF;}
	.st8{fill:#00B59A;}
	.st9{fill:#EE476F;}
	.st10{fill:#FAAF3B;}
	.st11{fill:#959595;}
	.st12{fill:#999999;}
</style>
<path  fill="#7B3DD9"  d="M62.8,29L31.57,0L0.35,29c-0.44,0.41-0.47,1.1-0.06,1.54c0.41,0.44,1.1,0.46,1.54,0.06l3.61-3.36v36.31h17.42
	h17.42h17.42V27.24l3.61,3.36c0.21,0.2,0.48,0.29,0.74,0.29c0.29,0,0.58-0.12,0.79-0.35C63.27,30.1,63.24,29.41,62.8,29z
	 M25.04,61.37V43.95c0-3.6,2.93-6.53,6.53-6.53c3.6,0,6.54,2.93,6.54,6.53v17.42H25.04z M55.53,61.37H40.28V43.95
	c0-4.8-3.91-8.71-8.71-8.71c-4.8,0-8.71,3.91-8.71,8.71v17.42H7.62V25.21L31.57,2.97l23.96,22.24V61.37z"/>
</svg>
