<?xml version="1.0" encoding="utf-8"?>
<!-- Generator: Adobe Illustrator 25.0.1, SVG Export Plug-In . SVG Version: 6.00 Build 0)  -->
<svg version="1.1" id="Layer_1" xmlns="http://www.w3.org/2000/svg" xmlns:xlink="http://www.w3.org/1999/xlink" x="0px" y="0px"
	 viewBox="0 0 65.75 60" style="enable-background:new 0 0 65.75 60;" xml:space="preserve">
<style type="text/css">
	.st0{fill:#FFFFFF;}
	.st1{fill:#878787;}
	.st2{fill:#F7931E;}
	.st3{fill:#35424B;}
	.st4{fill:#7B3DD9;}
	.st5{fill:#FF9D00;}
	.st6{fill:#00A9FF;}
	.st7{fill:#1D39CF;}
	.st8{fill:#00B59A;}
	.st9{fill:#EE476F;}
	.st10{fill:#FAAF3B;}
	.st11{fill:#959595;}
	.st12{fill:#999999;}
</style>
<g>
	<g>
		<g>
			<path fill="#FAAF3B" d="M64.94,28.42l-7.04-4.96c-1.27-0.9-3.04,0.02-3.04,1.57v3.03H21.09c-1.06,0-1.93,0.86-1.93,1.93
				c0,1.06,0.86,1.93,1.93,1.93h33.78v3.03c0,1.57,1.77,2.47,3.04,1.58l7.04-4.96C66.01,30.82,66.04,29.2,64.94,28.42z"/>
		</g>
	</g>
	<g>
		<g>
			<path fill="#FAAF3B"  d="M55.28,42.37c-0.92-0.53-2.1-0.22-2.63,0.7C48.12,50.89,39.67,56.15,30,56.15
				C15.58,56.15,3.85,44.42,3.85,30C3.85,15.58,15.58,3.85,30,3.85c9.67,0,18.13,5.26,22.65,13.08c0.53,0.92,1.71,1.24,2.63,0.7
				c0.92-0.53,1.24-1.71,0.7-2.63C50.78,6,41.06,0,30,0C13.42,0,0,13.42,0,30c0,16.58,13.42,30,30,30c11.07,0,20.78-6.01,25.99-15
				C56.52,44.08,56.2,42.9,55.28,42.37z"/>
		</g>
	</g>
</g>
</svg>
