<?xml version="1.0" encoding="utf-8"?>
<!-- Generator: Adobe Illustrator 22.0.0, SVG Export Plug-In . SVG Version: 6.00 Build 0)  -->
<svg version="1.1" id="Layer_1" xmlns="http://www.w3.org/2000/svg" xmlns:xlink="http://www.w3.org/1999/xlink" x="0px" y="0px"
	 viewBox="0 0 81.4 65" style="enable-background:new 0 0 81.4 65;" xml:space="preserve">
<style type="text/css">
	.st0{fill:#F3931D;}
	.st1{fill:#469DD7;}
</style>
<g>
	<g>
		<polygon fill="#F3931D" points="66.9,13 66.9,19.2 67,18.7 76.4,20.8 75.9,22.7 69.3,21.3 68.5,24.9 75.2,26.3 74.7,28.4 68.1,26.9
			67.1,31.5 73.7,33 73.3,35.1 66.9,33.7 66.9,39.9 75.3,41.6 81.4,15 		"/>
	</g>
	<g>
		<g>
			<path fill="#469DD7" d="M52.4,5.8l-1.3,18.1l1.1,1.9c0.3,0.5,0.5,0.9,0.7,1.3c0.2,0.4,0.3,0.8,0.5,1.1c0.1-0.4,0.2-0.8,0.3-1.2
				c0.1-0.4,0.3-0.9,0.5-1.3l3.2-8.5l3-0.3L54,33.4l-3.1-5l-1.4,20.4l15.1-4.1L66,8.9L52.4,5.8z"/>
		</g>
		<path fill="#F3931D" d="M37.7,23.3c0.5-0.3,0.7-0.8,0.7-1.6c0-0.8-0.3-1.4-0.8-1.7c-0.5-0.3-1.5-0.5-2.9-0.5l-0.5,0l0,4.2h0.5
			C36.2,23.7,37.2,23.6,37.7,23.3"/>
		<g>
			<path fill="#F3931D" d="M47.6,2L33.9,0l-0.7,17.5l2.2,0c1.1,0,2,0.1,2.7,0.2c0.6,0.1,1.2,0.3,1.6,0.6c0.5,0.4,0.9,0.8,1.2,1.4
				c0.3,0.6,0.4,1.2,0.4,1.8c0,1.2-0.3,2.1-1,2.8c-0.7,0.7-1.6,1.1-2.9,1.2l5.9,6.6l-3.2,0l-5.7-6.5h-0.3l0,6.6l-1.5,0L31.9,49
				L49,52.9L47.6,2z"/>
		</g>
		<g>
			<polygon fill="#469DD7" points="14.4,6.4 14.7,18.3 21.7,17.1 22,19.1 15.4,20.2 16,23.8 22.7,22.7 23,24.7 16.3,25.9 17.1,30.5
				23.8,29.4 24.2,31.5 15,33.1 15.4,45.9 31.2,46.7 31.6,3.3 			"/>
		</g>
		<g>
			<path fill="#F3931D" d="M12.2,12.6L0,10.6v9L1.9,25c0.2,0.5,0.3,1,0.4,1.4c0.1,0.4,0.2,0.8,0.2,1.2c0.2-0.4,0.3-0.8,0.6-1.2
				c0.2-0.4,0.5-0.8,0.7-1.2l5.1-7.7l3,0.4L1.9,33L0,27.6V43l14.4-2.9L12.2,12.6z"/>
		</g>
		<g>
			<polygon fill="#F3931D" points="1.3,57.6 3.5,62.4 5.8,57.6 7.1,57.6 3.5,65 0,57.6 			"/>
		</g>
		<g>
			<polygon fill="#F3931D" points="12.5,58.6 9.3,58.6 9.3,60.2 12.4,60.2 12.4,61.2 9.3,61.2 9.3,63.5 12.5,63.5 12.5,64.5 8.1,64.5
				8.1,57.6 12.5,57.6 			"/>
		</g>
		<path fill="#F3931D" d="M16.8,61.5l2.5,2.9h-1.5l-2.3-2.8h-0.2v2.8h-1.2v-6.9h1.4c1.1,0,1.8,0.2,2.3,0.5c0.5,0.4,0.8,0.9,0.8,1.5
			c0,0.5-0.2,0.9-0.5,1.3C17.7,61.2,17.3,61.4,16.8,61.5 M15.3,60.7h0.4c1.1,0,1.7-0.4,1.7-1.1c0-0.7-0.6-1.1-1.7-1.1h-0.4V60.7z"/>
		<g>
			<polygon fill="#F3931D" points="20.6,57.6 22.8,62.4 25,57.6 26.4,57.6 22.8,65 19.3,57.6 			"/>
		</g>
		<g>
			<polygon fill="#F3931D" points="31.8,58.6 28.6,58.6 28.6,60.2 31.7,60.2 31.7,61.2 28.6,61.2 28.6,63.5 31.8,63.5 31.8,64.5
				27.3,64.5 27.3,57.6 31.8,57.6 			"/>
		</g>
		<path fill="#469DD7" d="M41.1,58.6l-1,0.5c-0.2-0.3-0.4-0.5-0.5-0.5c-0.2-0.1-0.4-0.1-0.7-0.1c-0.3,0-0.6,0.1-0.8,0.2
			c-0.2,0.2-0.3,0.4-0.3,0.6c0,0.3,0.3,0.6,0.9,0.8l0.8,0.3c0.6,0.2,1.1,0.5,1.4,0.8c0.3,0.3,0.5,0.7,0.5,1.2c0,0.6-0.2,1.2-0.7,1.6
			c-0.5,0.4-1.1,0.6-1.8,0.6c-0.7,0-1.3-0.2-1.7-0.5c-0.4-0.4-0.7-0.9-0.8-1.5l1.2-0.2c0.1,0.4,0.2,0.7,0.3,0.8
			c0.3,0.3,0.6,0.4,1.1,0.4c0.4,0,0.7-0.1,0.9-0.3c0.3-0.2,0.4-0.5,0.4-0.8c0-0.1,0-0.3-0.1-0.4c0-0.1-0.1-0.2-0.2-0.3
			c-0.1-0.1-0.2-0.2-0.4-0.3c-0.1-0.1-0.3-0.2-0.5-0.2L38.2,61c-1.1-0.4-1.6-1-1.6-1.8c0-0.5,0.2-1,0.7-1.3c0.5-0.4,1-0.5,1.7-0.5
			C39.9,57.4,40.6,57.8,41.1,58.6"/>
		<g>
			<polygon fill="#469DD7" points="44.3,61.5 41.7,57.6 43.1,57.6 44.9,60.3 46.8,57.6 48.2,57.6 45.5,61.5 45.5,64.5 44.3,64.5 			"/>
		</g>
		<path fill="#469DD7" d="M53.4,58.6l-1,0.5c-0.2-0.3-0.4-0.5-0.5-0.5c-0.2-0.1-0.4-0.1-0.7-0.1c-0.3,0-0.6,0.1-0.8,0.2
			C50.1,58.8,50,59,50,59.3c0,0.3,0.3,0.6,0.9,0.8l0.8,0.3c0.6,0.2,1.1,0.5,1.4,0.8c0.3,0.3,0.5,0.7,0.5,1.2c0,0.6-0.2,1.2-0.7,1.6
			c-0.5,0.4-1.1,0.6-1.8,0.6c-0.7,0-1.3-0.2-1.7-0.5c-0.4-0.4-0.7-0.9-0.8-1.5l1.2-0.2c0.1,0.4,0.2,0.7,0.3,0.8
			c0.2,0.3,0.6,0.4,1.1,0.4c0.4,0,0.7-0.1,0.9-0.3c0.2-0.2,0.4-0.5,0.4-0.8c0-0.1,0-0.3-0.1-0.4c0-0.1-0.1-0.2-0.2-0.3
			c-0.1-0.1-0.2-0.2-0.4-0.3c-0.1-0.1-0.3-0.2-0.5-0.2L50.4,61c-1.1-0.4-1.6-1-1.6-1.8c0-0.5,0.2-1,0.7-1.3c0.5-0.4,1-0.5,1.7-0.5
			C52.1,57.4,52.8,57.8,53.4,58.6"/>
		<g>
			<polygon fill="#469DD7" points="57.4,58.6 57.4,64.5 56.2,64.5 56.2,58.6 54.3,58.6 54.3,57.6 59.2,57.6 59.2,58.6 			"/>
		</g>
		<g>
			<polygon fill="#469DD7" points="64.7,58.6 61.5,58.6 61.5,60.2 64.6,60.2 64.6,61.2 61.5,61.2 61.5,63.5 64.7,63.5 64.7,64.5
				60.3,64.5 60.3,57.6 64.7,57.6 			"/>
		</g>
		<g>
			<polygon fill="#469DD7" points="66,64.5 67.7,57.1 70.4,62.4 73.3,57.1 74.8,64.5 73.5,64.5 72.8,60.3 70.4,64.8 68.1,60.3
				67.2,64.5 			"/>
		</g>
		<path fill="#469DD7" d="M81,58.6l-1,0.5c-0.2-0.3-0.4-0.5-0.5-0.5c-0.2-0.1-0.4-0.1-0.7-0.1c-0.3,0-0.6,0.1-0.8,0.2
			c-0.2,0.2-0.3,0.4-0.3,0.6c0,0.3,0.3,0.6,0.9,0.8l0.8,0.3c0.6,0.2,1.1,0.5,1.4,0.8c0.3,0.3,0.5,0.7,0.5,1.2c0,0.6-0.2,1.2-0.7,1.6
			c-0.5,0.4-1.1,0.6-1.8,0.6c-0.7,0-1.3-0.2-1.7-0.5c-0.4-0.4-0.7-0.9-0.8-1.5l1.2-0.2c0.1,0.4,0.2,0.7,0.3,0.8
			c0.2,0.3,0.6,0.4,1.1,0.4c0.4,0,0.7-0.1,0.9-0.3c0.2-0.2,0.4-0.5,0.4-0.8c0-0.1,0-0.3-0.1-0.4c0-0.1-0.1-0.2-0.2-0.3
			c-0.1-0.1-0.2-0.2-0.4-0.3c-0.1-0.1-0.3-0.2-0.5-0.2L78.1,61c-1.1-0.4-1.6-1-1.6-1.8c0-0.5,0.2-1,0.7-1.3c0.5-0.4,1-0.5,1.7-0.5
			C79.7,57.4,80.5,57.8,81,58.6"/>
	</g>
</g>
</svg>
