<svg width="97.500000" height="75.000000" viewBox="0 0 97.5 75" fill="none" xmlns="http://www.w3.org/2000/svg" xmlns:xlink="http://www.w3.org/1999/xlink">
	<desc>
			Created with Pixso.
	</desc>
	<g opacity="0.700000">
		<path id="Path 19" d="M94.687 0L17.812 0C16.312 0 15 1.31201 15 2.81299L15 60C15 62.25 12.937 64.125 10.687 63.75C8.81201 63.375 7.5 61.688 7.5 59.813L7.5 18.75C7.5 17.625 6.75 16.875 5.625 16.875L2.81201 16.875C1.31201 16.875 0 18.187 0 19.688L0 67.5C0 71.625 3.375 75 7.5 75L15 75L90 75C94.125 75 97.5 71.625 97.5 67.5L97.5 2.81299C97.5 1.31201 96.187 0 94.687 0ZM52.5 54.375C52.5 55.5 51.75 56.25 50.625 56.25L28.125 56.25C27 56.25 26.25 55.5 26.25 54.375L26.25 50.625C26.25 49.5 27 48.75 28.125 48.75L50.625 48.75C51.75 48.75 52.5 49.5 52.5 50.625L52.5 54.375ZM52.5 39.375C52.5 40.5 51.75 41.25 50.625 41.25L28.125 41.25C27 41.25 26.25 40.5 26.25 39.375L26.25 35.625C26.25 34.5 27 33.75 28.125 33.75L50.625 33.75C51.75 33.75 52.5 34.5 52.5 35.625L52.5 39.375ZM86.25 54.375C86.25 55.5 85.5 56.25 84.375 56.25L61.875 56.25C60.75 56.25 60 55.5 60 54.375L60 50.625C60 49.5 60.75 48.75 61.875 48.75L84.375 48.75C85.5 48.75 86.25 49.5 86.25 50.625L86.25 54.375ZM86.25 39.375C86.25 40.5 85.5 41.25 84.375 41.25L61.875 41.25C60.75 41.25 60 40.5 60 39.375L60 35.625C60 34.5 60.75 33.75 61.875 33.75L84.375 33.75C85.5 33.75 86.25 34.5 86.25 35.625L86.25 39.375ZM86.25 24.375C86.25 25.5 85.5 26.25 84.375 26.25L28.125 26.25C27 26.25 26.25 25.5 26.25 24.375L26.25 13.125C26.25 12 27 11.25 28.125 11.25L84.375 11.25C85.5 11.25 86.25 12 86.25 13.125L86.25 24.375Z" fill-rule="evenodd" fill="#F8F8F8"/>
	</g>
	<defs/>
</svg>
