<svg width="97.250977" height="97.573975" viewBox="0 0 97.251 97.574" fill="none" xmlns="http://www.w3.org/2000/svg" xmlns:xlink="http://www.w3.org/1999/xlink">
	<desc>
			Created with Pixso.
	</desc>
	<g opacity="0.700000">
		<path id="Path 76" d="M78.252 59.5754C78.252 61.0027 77.0959 62.1584 75.6699 62.1584L64.8479 62.1584C63.4219 62.1584 62.2659 61.0027 62.2659 59.5754L62.2659 54.6497L34.9839 54.6497L34.9839 59.5754C34.9839 61.0027 33.8279 62.1584 32.4019 62.1584L21.5801 62.1584C20.1541 62.1584 18.998 61.0027 18.998 59.5754L18.998 54.6497L5.20996 54.6497L5.20996 93.1731C5.20996 95.6028 7.17993 97.5735 9.60986 97.5735L87.6389 97.5735C90.0701 97.5735 92.04 95.6028 92.04 93.1731L92.04 54.6497L78.252 54.6497L78.252 59.5754Z" fill-rule="evenodd" fill="#F8F8F8"/>
		<path id="Path 77" d="M92.8489 18.3171L67.5479 18.3171L67.5479 4.26904C67.5479 1.91113 65.637 0 63.2791 0L33.9709 0C31.613 0 29.7019 1.91113 29.7019 4.26904L29.7019 18.3171L4.40088 18.3171C1.96997 18.3171 0 20.2881 0 22.718L0 47.262L18.998 47.262L18.998 42.457C18.998 41.031 20.1541 39.875 21.5801 39.875L32.4019 39.875C33.8279 39.875 34.9849 41.031 34.9849 42.457L34.9849 47.262L62.2659 47.262L62.2659 42.457C62.2659 41.031 63.4219 39.875 64.8489 39.875L75.6709 39.875C77.0969 39.875 78.2529 41.031 78.2529 42.457L78.2529 47.262L97.251 47.262L97.251 22.718C97.25 20.2881 95.28 18.3171 92.8489 18.3171ZM38.24 8.53711L59.01 8.53711L59.01 18.3171L38.24 18.3171L38.24 8.53711Z" fill-rule="evenodd" fill="#F8F8F8"/>
	</g>
	<defs/>
</svg>
