<svg width="99.044434" height="96.931152" viewBox="0 0 99.0444 96.9312" fill="none" xmlns="http://www.w3.org/2000/svg" xmlns:xlink="http://www.w3.org/1999/xlink">
	<desc>
			Created with Pixso.
	</desc>
	<rect id="Rectangle 50" y="39.178711" width="17.489849" height="51.491844" fill="#F8F8F8"/>
	<path id="Path 18" d="M99.043 87.062L78.166 66.1763L75.4551 67.8301L71.3403 63.8433C77.7671 54.8242 77.001 42.252 68.918 34.1631C68.3652 33.6108 67.7363 33.1938 67.1411 32.7139L67.1411 0L49.6641 0L49.6641 27.6641C47.1182 27.9873 44.6479 28.7402 42.3071 29.9131L42.3071 21.5059L24.8423 21.5059L24.8423 90.6753L42.3032 90.6753L42.3032 71.043C44.644 72.2119 47.1182 72.9639 49.6602 73.2871L49.6602 90.6699L67.1372 90.6699L67.1372 70.3501L69.8311 72.9473L68.2803 76.062L89.1621 96.9312C89.1621 96.9312 93.7012 96.9912 96.438 93.8623C99.188 90.7383 99.043 87.062 99.043 87.062ZM40.0332 37.8989C46.9482 30.9541 58.2241 30.9502 65.1689 37.895C72.105 44.8442 72.1104 56.0859 65.1562 63.0522C58.2241 69.9839 46.9609 69.9932 40.0122 63.0439C33.0669 56.1069 33.0713 44.8442 40.0332 37.8989Z" fill-rule="evenodd" fill="#F8F8F8"/>
	<defs/>
</svg>
