<svg width="99.044678" height="96.931152" viewBox="0 0 99.0447 96.9312" fill="none" xmlns="http://www.w3.org/2000/svg" xmlns:xlink="http://www.w3.org/1999/xlink">
	<desc>
			Created with Pixso.
	</desc>
	<g opacity="0.700000">
		<rect id="Rectangle 68" y="39.178711" width="17.489849" height="51.491844" fill="#F8F8F8"/>
		<path id="Path 35" d="M99.0432 87.062L78.1663 66.1763L75.4553 67.8301L71.3406 63.8433C77.7673 54.8242 77.0012 42.252 68.9182 34.1631C68.3655 33.6108 67.7366 33.1938 67.1414 32.7139L67.1414 0L49.6643 0L49.6643 27.6641C47.1184 27.9873 44.6482 28.7402 42.3074 29.9131L42.3074 21.5059L24.8425 21.5059L24.8425 90.6753L42.3035 90.6753L42.3035 71.043C44.6443 72.2119 47.1184 72.9639 49.6604 73.2871L49.6604 90.6699L67.1375 90.6699L67.1375 70.3501L69.8313 72.9473L68.2805 76.062L89.1624 96.9312C89.1624 96.9312 93.7014 96.9912 96.4382 93.8623C99.1882 90.7383 99.0432 87.062 99.0432 87.062ZM40.0334 37.8989C46.9485 30.9541 58.2244 30.9502 65.1692 37.895C72.1052 44.8442 72.1106 56.0859 65.1565 63.0522C58.2244 69.9839 46.9612 69.9932 40.0125 63.0439C33.0671 56.1069 33.0715 44.8442 40.0334 37.8989Z" fill-rule="evenodd" fill="#F8F8F8"/>
	</g>
	<defs/>
</svg>
